<?xml version="1.0" encoding="UTF-8"?>
<svg width="80px" height="92px" viewBox="0 0 80 92" version="1.1" xmlns="http://www.w3.org/2000/svg" xmlns:xlink="http://www.w3.org/1999/xlink">
    <title>Group 18</title>
    <g id="IDEA-2-FINAL-DESIGN" stroke="none" stroke-width="1" fill="none" fill-rule="evenodd">
        <g id="Tablet-COLOR" transform="translate(-17.000000, -22.000000)">
            <g id="Group-18" transform="translate(17.000000, 22.000000)">
                <g id="Group-17" transform="translate(14.571513, 0.000000)">
                    <path d="M-1.78591338e-14,55.1012933 L50.1667343,55.1012933 L50.1667343,29.3139454 C50.1705501,26.5918137 49.8729001,24.7651168 49.2737843,23.8338547 C48.3751107,22.4369615 47.1528291,20.1909178 40.9124907,18.2821436 C36.752265,17.0096274 33.9095248,15.7077958 32.38427,14.3766489 C30.2599127,13.0130097 28.5654157,10.3354454 27.3007789,6.34395598 C25.4038237,0.356721788 18.1656917,5.35774013e-14 15.3071741,5.35774013e-14 C12.4486566,5.35774013e-14 7.27352915,0.0127076429 5.81442092,0.388565813 C4.35531268,0.764423983 1.41628706,3.07261601 1.02358233,4.41265342 C0.630877604,5.75269084 -1.78591338e-14,4.82743859 -1.78591338e-14,12.3930154 C-1.78591338e-14,17.4367333 -1.78591338e-14,31.6728259 -1.78591338e-14,55.1012933 Z" id="Path-5" fill="#8F6C95"></path>
                    <polygon id="Path-6" fill="#FFFFFF" points="5.43675058 38.8317492 5.43675058 48.1352704 6.93318173 48.1352704 6.93318173 55.1012933 1.14837314 55.1012933 1.14837314 38.8317492 2.15458899 38.8317492 2.15458899 36.3332738 3.46911911 34.4921576 4.78348286 36.3332738 4.78348286 38.8317492"></polygon>
                    <polygon id="Path-7" fill="#FFFFFF" points="8.06146955 48.1352704 8.06146955 55.1012933 13.7192079 55.1012933 13.7192079 48.1352704 12.5923574 48.1352704 12.5923574 34.4921576 10.8193703 34.9478969 10.8193703 36.6979649 9.69297067 36.6979649 9.69297067 48.1352704"></polygon>
                    <polyline id="Path-10" fill="#FFFFFF" points="14.9381877 55.1012933 20.9707163 55.1012933 20.9707163 33.0732343 19.3385997 33.0732343 19.3385997 33.6190035 17.954452 33.6190035 17.954452 32.245089 16.5103884 32.245089 16.5103884 48.1352704 14.9381877 48.1352704"></polyline>
                    <polyline id="Path-11" fill="#FFFFFF" points="22.1553913 55.1012933 27.7871949 55.1012933 27.7871949 48.1352704 26.8323955 48.1352704 26.8323955 30.1441744 24.9712931 26.0380032 24.9712931 22.991336 24.1238679 22.991336 24.1238679 26.0380032 22.1553913 30.1441744"></polyline>
                    <polyline id="Path-12" fill="#FFFFFF" points="28.9678266 55.1012933 35.0350183 55.1012933 35.0350183 48.1352704 33.7062625 48.1352704 33.7062625 34.2252458 32.0014224 34.2252458 30.4364812 36.025995 30.4364812 48.1352704 28.9678266 48.1352704"></polyline>
                    <polyline id="Path-13" fill="#FFFFFF" points="36.1462795 55.1012933 41.8256815 55.1012933 41.8256815 48.1352704 40.635503 48.1352704 40.635503 40.4638656 39.795166 40.4638656 39.795166 39.8053404 38.9859805 39.8053404 38.9859805 40.4638656 38.497373 40.4638656 38.497373 37.8224018 37.6719509 37.8224018 37.6719509 40.4638656 37.3572025 40.4638656 37.3572025 48.1352704 36.1462795 48.1352704"></polyline>
                    <polyline id="Path-14" fill="#FFFFFF" points="43.0426393 55.1012933 49.1299207 55.1012933 49.1299207 40.2822528 48.2809469 40.2822528 48.2809469 38.7892568 46.8361057 38.7892568 46.8361057 40.2822528 46.2920944 40.2822528 46.2920944 34.0255088 44.8048792 34.0255088 44.8048792 40.2822528 44.3170624 40.2822528 44.3170624 48.1352704 43.0426393 48.1352704"></polyline>
                </g>
                <g id="Group-15" transform="translate(0.000000, 63.341641)" fill="#194F90" font-family="OpenSans-Italic, Open Sans" font-size="20.2332695" font-style="italic" font-weight="normal">
                    <text id="b">
                        <tspan x="65.2365287" y="22">b</tspan>
                    </text>
                    <text id="u">
                        <tspan x="53.5515014" y="22">u</tspan>
                    </text>
                    <text id="l">
                        <tspan x="13.0750337" y="22">l</tspan>
                    </text>
                    <text id="C">
                        <tspan x="1.30833153" y="22">C</tspan>
                    </text>
                    <text id="f">
                        <tspan x="28.1914095" y="22">f</tspan>
                    </text>
                    <text id="e">
                        <tspan x="18.2074659" y="22">e</tspan>
                    </text>
                    <text id="l">
                        <tspan x="48.5247273" y="22">l</tspan>
                    </text>
                    <text id="C">
                        <tspan x="36.7580251" y="22">C</tspan>
                    </text>
                </g>
                <g id="Group-16" transform="translate(1.769469, 54.795912)" fill="#194F90" font-family="OpenSans-Bold, Open Sans" font-size="10.0537985" font-weight="bold">
                    <text id="A">
                        <tspan x="67.0830098" y="11">A</tspan>
                    </text>
                    <text id="I">
                        <tspan x="63.73729" y="11">I</tspan>
                    </text>
                    <text id="H">
                        <tspan x="55.9027062" y="11">H</tspan>
                    </text>
                    <text id="P-Copy-16">
                        <tspan x="49.5575377" y="11">P</tspan>
                    </text>
                    <text id="L">
                        <tspan x="43.7189863" y="11">L</tspan>
                    </text>
                    <text id="E">
                        <tspan x="38.0910346" y="11">E</tspan>
                    </text>
                    <text id="D">
                        <tspan x="30.510845" y="11">D</tspan>
                    </text>
                    <text id="A">
                        <tspan x="23.4774233" y="11">A</tspan>
                    </text>
                    <text id="L">
                        <tspan x="17.8249261" y="11">L</tspan>
                    </text>
                    <text id="I">
                        <tspan x="14.41637" y="11">I</tspan>
                    </text>
                    <text id="H">
                        <tspan x="6.64462249" y="11">H</tspan>
                    </text>
                    <text id="P-Copy-8">
                        <tspan x="0.29945396" y="11">P</tspan>
                    </text>
                </g>
            </g>
        </g>
    </g>
</svg>