<?xml version="1.0" encoding="UTF-8"?>
<svg width="24px" height="25px" viewBox="0 0 24 25" version="1.1" xmlns="http://www.w3.org/2000/svg" xmlns:xlink="http://www.w3.org/1999/xlink">
    <title>Fill 3</title>
    <defs>
        <filter id="filter-1">
            <feColorMatrix in="SourceGraphic" type="matrix" values="0 0 0 0 0.003922 0 0 0 0 0.337255 0 0 0 0 0.796078 0 0 0 1.000000 0"></feColorMatrix>
        </filter>
    </defs>
    <g id="IDEA-2-FINAL-DESIGN" stroke="none" stroke-width="1" fill="none" fill-rule="evenodd">
        <g id="Group-10" transform="translate(-599.000000, -15219.000000)" filter="url(#filter-1)">
            <g transform="translate(599.000000, 15219.483871)">
                <path d="M23.00025,-4.68958206e-13 L1.0005,-4.68958206e-13 C0.44775,-4.68958206e-13 0,0.448351815 0,1.00109375 L0,23.0311643 C0,23.5839062 0.44775,24.0322581 1.0005,24.0322581 L12.75,24.0322581 L12.75,15.0201613 L9.75,15.0201613 L9.75,11.265121 L12.75,11.265121 L12.75,8.26108871 C12.75,5.15717238 14.71275,3.62962198 17.478,3.62962198 C18.8025,3.62962198 19.941,3.72875504 20.2725,3.77231351 L20.2725,7.01666835 L18.35475,7.01741935 C16.851,7.01741935 16.5,7.73313004 16.5,8.78303931 L16.5,11.265121 L20.25,11.265121 L19.5,15.0201613 L16.5,15.0201613 L16.56,24.0322581 L23.00025,24.0322581 C23.55225,24.0322581 24,23.5839062 24,23.0311643 L24,1.00109375 C24,0.448351815 23.55225,-4.68958206e-13 23.00025,-4.68958206e-13" id="Fill-3" fill="#FFFFFF"></path>
            </g>
        </g>
    </g>
</svg>