<?xml version="1.0" encoding="UTF-8"?>
<svg width="24px" height="24px" viewBox="0 0 24 24" version="1.1" xmlns="http://www.w3.org/2000/svg" xmlns:xlink="http://www.w3.org/1999/xlink">
    <title>Fill 23</title>
    <defs>
        <filter id="filter-1">
            <feColorMatrix in="SourceGraphic" type="matrix" values="0 0 0 0 0.003922 0 0 0 0 0.337255 0 0 0 0 0.796078 0 0 0 1.000000 0"></feColorMatrix>
        </filter>
    </defs>
    <g id="IDEA-2-FINAL-DESIGN" stroke="none" stroke-width="1" fill="none" fill-rule="evenodd">
        <g id="Group-10" transform="translate(-724.000000, -15220.000000)" filter="url(#filter-1)">
            <g transform="translate(599.000000, 15219.483871)">
                <path d="M146.230769,21.516129 L127.769231,21.516129 C127.344615,21.516129 127,21.180129 127,20.766129 L127,9.51612903 L130.076923,9.51612903 C129.676154,10.078629 129.540769,11.127879 129.540769,11.793879 C129.540769,15.810129 132.9,19.077879 137.028462,19.077879 C141.157692,19.077879 144.516923,15.810129 144.516923,11.793879 C144.516923,11.127879 144.42,10.094379 143.923077,9.51612903 L147,9.51612903 L147,20.766129 C147,21.180129 146.655385,21.516129 146.230769,21.516129 M137.499634,7.51612903 C139.985293,7.51612903 142,9.53103253 142,12.0157626 C142,14.5012255 139.985293,16.516129 137.499634,16.516129 C135.014707,16.516129 133,14.5012255 133,12.0157626 C133,9.53103253 135.014707,7.51612903 137.499634,7.51612903 M142.8,3.51612903 L145.2,3.51612903 C145.6416,3.51612903 146,3.87452903 146,4.31612903 L146,6.71612903 C146,7.15772903 145.6416,7.51612903 145.2,7.51612903 L142.8,7.51612903 C142.3584,7.51612903 142,7.15772903 142,6.71612903 L142,4.31612903 C142,3.87452903 142.3584,3.51612903 142.8,3.51612903 M146.147,0.516129032 L127.853,0.516129032 C126.27725,0.516129032 125,1.79037903 125,3.36237903 L125,21.669879 C125,23.241879 126.27725,24.516129 127.853,24.516129 L146.147,24.516129 C147.72275,24.516129 149,23.241879 149,21.669879 L149,3.36237903 C149,1.79037903 147.72275,0.516129032 146.147,0.516129032" id="Fill-23" fill="#FFFFFF"></path>
            </g>
        </g>
    </g>
</svg>