<?xml version="1.0" encoding="UTF-8"?>
<svg width="24px" height="20px" viewBox="0 0 24 20" version="1.1" xmlns="http://www.w3.org/2000/svg" xmlns:xlink="http://www.w3.org/1999/xlink">
    <title>Fill 1</title>
    <defs>
        <filter id="filter-1">
            <feColorMatrix in="SourceGraphic" type="matrix" values="0 0 0 0 0.003922 0 0 0 0 0.337255 0 0 0 0 0.796078 0 0 0 1.000000 0"></feColorMatrix>
        </filter>
    </defs>
    <g id="IDEA-2-FINAL-DESIGN" stroke="none" stroke-width="1" fill="none" fill-rule="evenodd">
        <g id="Group-10" transform="translate(-641.000000, -15221.000000)" filter="url(#filter-1)">
            <g transform="translate(599.000000, 15219.483871)">
                <path d="M66,3.94096379 C65.11725,4.33760464 64.16775,4.60583111 63.17175,4.726647 C64.18875,4.10889028 64.9695,3.13172529 65.337,1.96687775 C64.386,2.53828372 63.3315,2.95316092 62.21025,3.17731619 C61.31175,2.20774968 60.03225,1.60215054 58.61625,1.60215054 C55.89675,1.60215054 53.6925,3.83534487 53.6925,6.59055503 C53.6925,6.98111709 53.736,7.36180111 53.82,7.72728818 C49.72725,7.51908973 46.0995,5.53284611 43.671,2.51472842 C43.24725,3.25178133 43.00425,4.10889028 43.00425,5.02298786 C43.00425,6.75316258 43.8735,8.28045778 45.19425,9.1747993 C44.38725,9.14896446 43.62825,8.92480919 42.9645,8.5509638 C42.96375,8.57223955 42.96375,8.59275546 42.96375,8.61403121 C42.96375,11.0311089 44.661,13.0469866 46.914,13.5051751 C46.50075,13.6191524 46.06575,13.6799402 45.6165,13.6799402 C45.29925,13.6799402 44.991,13.6487865 44.69025,13.591038 C45.3165,15.5727225 47.13525,17.0149147 49.29,17.0551867 C47.60475,18.3932796 45.4815,19.1903606 43.1745,19.1903606 C42.777,19.1903606 42.3855,19.1668053 42,19.1212144 C44.17875,20.536052 46.767,21.3620072 49.548,21.3620072 C58.605,21.3620072 63.55725,13.7604842 63.55725,7.16879963 C63.55725,6.95224285 63.55275,6.73720576 63.543,6.52292852 C64.50525,5.82006879 65.34,4.94168408 66,3.94096379" id="Fill-1" fill="#FFFFFF"></path>
            </g>
        </g>
    </g>
</svg>