<?xml version="1.0" encoding="UTF-8"?>
<svg width="24px" height="17px" viewBox="0 0 24 17" version="1.1" xmlns="http://www.w3.org/2000/svg" xmlns:xlink="http://www.w3.org/1999/xlink">
    <title>Fill 25</title>
    <defs>
        <filter id="filter-1">
            <feColorMatrix in="SourceGraphic" type="matrix" values="0 0 0 0 0.003922 0 0 0 0 0.337255 0 0 0 0 0.796078 0 0 0 1.000000 0"></feColorMatrix>
        </filter>
    </defs>
    <g id="IDEA-2-FINAL-DESIGN" stroke="none" stroke-width="1" fill="none" fill-rule="evenodd">
        <g id="Group-10" transform="translate(-682.000000, -15222.000000)" filter="url(#filter-1)">
            <g transform="translate(599.000000, 15219.483871)">
                <path d="M93.000694,13.516129 L93,7.51612903 L99,10.5264727 L93.000694,13.516129 Z M106.76,6.18321038 C106.76,6.18321038 106.52525,4.51772853 105.806,3.78431226 C104.89325,2.82127854 103.87025,2.81674662 103.4015,2.7608529 C100.043,2.51612903 95.00525,2.51612903 95.00525,2.51612903 L94.99475,2.51612903 C94.99475,2.51612903 89.957,2.51612903 86.5985,2.7608529 C86.129,2.81674662 85.10675,2.82127854 84.19325,3.78431226 C83.474,4.51772853 83.24,6.18321038 83.24,6.18321038 C83.24,6.18321038 83,8.13949065 83,10.0950156 L83,11.9289339 C83,13.8852142 83.24,15.8407392 83.24,15.8407392 C83.24,15.8407392 83.474,17.506221 84.19325,18.2396373 C85.10675,19.202671 86.306,19.1724582 86.84,19.2729158 C88.76,19.4587247 95,19.516129 95,19.516129 C95,19.516129 100.043,19.5085758 103.4015,19.263852 C103.87025,19.2072029 104.89325,19.202671 105.806,18.2396373 C106.52525,17.506221 106.76,15.8407392 106.76,15.8407392 C106.76,15.8407392 107,13.8852142 107,11.9289339 L107,10.0950156 C107,8.13949065 106.76,6.18321038 106.76,6.18321038 L106.76,6.18321038 Z" id="Fill-25" fill="#FFFFFF"></path>
            </g>
        </g>
    </g>
</svg>